<?xml version="1.0" encoding="utf-8"?>
<!-- Generator: Adobe Illustrator 18.1.1, SVG Export Plug-In . SVG Version: 6.00 Build 0)  -->
<svg version="1.1" id="Layer_1" xmlns="http://www.w3.org/2000/svg" xmlns:xlink="http://www.w3.org/1999/xlink" x="0px" y="0px"
	 viewBox="0 0 350 64" enable-background="new 0 0 350 64" xml:space="preserve">
<g>
	<defs>
		<rect id="SVGID_1_" width="350" height="63.2"/>
	</defs>
	<clipPath id="SVGID_2_">
		<use xlink:href="#SVGID_1_"  overflow="visible"/>
	</clipPath>
	<path clip-path="url(#SVGID_2_)" fill="#0011F2" d="M328,23.4c6.3,0,11.2,5.1,11.2,15.2C339.2,49,334.7,54,328,54
		c-7.4,0-11.4-5.4-11.4-15.3C316.6,29,320.8,23.4,328,23.4 M350,0h-11.3v19.8c-3-3.5-7.2-5.6-13-5.6c-12.1,0-20.8,10.1-20.8,24.6
		c0,14.4,8,24.5,20.5,24.5c4.8,0,10.1-1.8,13.6-6.4v5.2H350V0z M299,14.2c-4.8,0-9.5,2.7-12.7,8.8v-7.6h-11.1v46.7h11.3V41.8
		c0-12.9,5.7-16.2,13-16.2c0.6,0,1.2,0,2.7,0.1V14.4C301.5,14.3,300,14.2,299,14.2 M253.7,39.4v5.1c0,5.7-5.1,9.6-10.9,9.6
		c-5,0-7-2.6-7-6.1c0-4.4,2.9-6.5,10.4-7.4L253.7,39.4z M245.9,14.2c-12,0-19.6,4.8-19.9,15h11.2c0.1-4.9,2.6-6.7,8.4-6.7
		c6.4,0,8.1,1.8,8.1,7.3v2.1l-10.5,1.3c-13.7,1.7-19.1,7.2-19.1,15.8c0,8.2,5.8,14.3,15.8,14.3c5,0,10.4-1.6,13.9-6
		c0.3,1.7,0.7,3.4,1.3,4.9h11.4c-1.3-3.3-1.6-6.6-1.6-10.2v-23C265.1,19.6,259.9,14.2,245.9,14.2 M229,0h-12.9L202,27.4L187.9,0
		h-13.3l21.4,37.5v24.6h11.7V37.3L229,0z M151.9,22.8c6.1,0,9.9,3.5,10.5,10.9h-21.3C141.7,26.5,145.8,22.8,151.9,22.8 M152,14.2
		c-14.6,0-22.6,10.3-22.6,24.6c0,14,8.5,24.5,23.3,24.5c9.7,0,16.7-4,21-10.9l-9.2-4.7c-2.1,3.8-5.7,6.5-11.3,6.5
		c-7.4,0-11.8-4.2-12.1-12.7h33v-2.3C174.1,24.6,166,14.2,152,14.2 M121.2,15.3h-11.3V42c0,7-4.3,11.4-10.2,11.4
		c-5.3,0-7.5-2.6-7.5-9V15.3H80.8V47c0,11,6.4,16.2,15.7,16.2c5.3,0,10.2-2.2,13.7-6.6v5.4h11.1V15.3z M67.5,0H56.2v50.2
		c0,8.5,4.2,12.5,11.3,12.5c2.3,0,4.3-0.3,5.9-0.7v-8.6c-1.1,0.1-1.4,0.1-2,0.1c-3.8,0-4-1.1-4-5.1V0z M11.7,52.4V33.9h13.6
		c5.3,0,11.3,1.6,11.3,9.6c0,6.1-4.6,9-11.1,9H11.7z M22.4,9.7c7.2,0,11,2,11,7.5c0,5.7-4.1,7.9-9.4,7.9H11.7V9.7H22.4z M35.1,28.5
		c6.3-1.6,10.4-5.6,10.4-12.7C45.5,5.9,38.6,0,21.5,0H0v62.1h25c16.8,0,23.8-7.5,23.8-17.8C48.8,35.9,44.3,30.3,35.1,28.5"/>
</g>
</svg>
