<?xml version="1.0" encoding="UTF-8" standalone="no"?>
<svg width="60px" height="60px" viewBox="0 0 60 60" version="1.1" xmlns="http://www.w3.org/2000/svg" xmlns:xlink="http://www.w3.org/1999/xlink" xmlns:sketch="http://www.bohemiancoding.com/sketch/ns">
    <!-- Generator: Sketch 3.4 (15588) - http://www.bohemiancoding.com/sketch -->
    <title>Oval 28 + Group Copy 2</title>
    <desc>Created with Sketch.</desc>
    <defs></defs>
    <g id="Page-1" stroke="none" stroke-width="1" fill="none" fill-rule="evenodd" sketch:type="MSPage">
        <g id="Desktop-HD-Copy" sketch:type="MSArtboardGroup" transform="translate(-633.000000, -876.000000)" fill="#0011F2">
            <g id="Oval-28-+-Group-Copy-2" sketch:type="MSLayerGroup" transform="translate(633.000000, 876.000000)">
                <path d="M1.40211979,20.9090909 C5.25286971,8.78474215 16.6005416,0 30,0 C46.5685425,0 60,13.4314575 60,30 C60,31.2607333 59.922232,32.503303 59.7712314,33.7231735 C59.2639759,33.3221509 58.6238079,33.0825496 57.9279558,33.0825496 L50.1513333,33.0825496 C48.5125562,33.0825496 47.1701982,34.4205492 47.1701982,36.0710554 C47.1701982,37.7182031 48.5048979,39.0595611 50.1513333,39.0595611 L57.9279558,39.0595611 C58.1711689,39.0595611 58.407853,39.0300905 58.6345892,38.9745013 C54.8196793,51.1589883 43.4423041,60 30,60 C16.5889961,60 5.23331598,51.2001127 1.3921826,39.0595611 L10.7577576,39.0595611 C12.3965347,39.0595611 13.7388927,37.7215615 13.7388927,36.0710554 C13.7388927,34.4239077 12.404193,33.0825496 10.7577576,33.0825496 L0.156436598,33.0825496 C0.052996002,32.0691119 0,31.0407449 0,30 C0,28.9485226 0.0540946629,27.9096797 0.159652831,26.8861024 L10.7577576,26.8861024 C12.3965347,26.8861024 13.7388927,25.5481028 13.7388927,23.8975967 C13.7388927,22.250449 12.404193,20.9090909 10.7577576,20.9090909 L1.40211979,20.9090909 Z M18.3185236,36.0535447 C18.3185236,34.4127094 19.6546097,33.0825496 21.2952837,33.0825496 C22.9393029,33.0825496 24.2720437,34.4090422 24.2720437,36.0535447 L24.2720437,36.0885661 C24.2720437,37.7294013 22.9359576,39.0595611 21.2952837,39.0595611 C19.6512645,39.0595611 18.3185236,37.7330686 18.3185236,36.0885661 L18.3185236,36.0535447 Z M28.8516746,36.0710554 C28.8516746,34.4205492 30.1940326,33.0825496 31.8328097,33.0825496 L39.6094322,33.0825496 C41.2558677,33.0825496 42.5905673,34.4239077 42.5905673,36.0710554 C42.5905673,37.7215615 41.2482093,39.0595611 39.6094322,39.0595611 L31.8328097,39.0595611 C30.1863743,39.0595611 28.8516746,37.7182031 28.8516746,36.0710554 Z M18.3185236,23.880086 C18.3185236,22.2392507 19.6546097,20.9090909 21.2952837,20.9090909 C22.9393029,20.9090909 24.2720437,22.2355835 24.2720437,23.880086 L24.2720437,23.9151073 C24.2720437,25.5559426 22.9359576,26.8861024 21.2952837,26.8861024 C19.6512645,26.8861024 18.3185236,25.5596098 18.3185236,23.9151073 L18.3185236,23.880086 Z M28.8516746,23.880086 C28.8516746,22.2392507 30.1877608,20.9090909 31.8284347,20.9090909 C33.4724539,20.9090909 34.8051948,22.2355835 34.8051948,23.880086 L34.8051948,23.9151073 C34.8051948,25.5559426 33.4691087,26.8861024 31.8284347,26.8861024 C30.1844155,26.8861024 28.8516746,25.5596098 28.8516746,23.9151073 L28.8516746,23.880086 Z M39.3848257,23.880086 C39.3848257,22.2392507 40.7209118,20.9090909 42.3615858,20.9090909 C44.005605,20.9090909 45.3383459,22.2355835 45.3383459,23.880086 L45.3383459,23.9151073 C45.3383459,25.5559426 44.0022597,26.8861024 42.3615858,26.8861024 C40.7175666,26.8861024 39.3848257,25.5596098 39.3848257,23.9151073 L39.3848257,23.880086 Z" id="Oval-28" sketch:type="MSShapeGroup"></path>
            </g>
        </g>
    </g>
</svg>