<?xml version="1.0" encoding="utf-8"?>
<!-- Generator: Adobe Illustrator 15.1.0, SVG Export Plug-In . SVG Version: 6.00 Build 0)  -->
<!DOCTYPE svg PUBLIC "-//W3C//DTD SVG 1.1//EN" "http://www.w3.org/Graphics/SVG/1.1/DTD/svg11.dtd">
<svg version="1.1" id="Ebene_1" xmlns="http://www.w3.org/2000/svg" xmlns:xlink="http://www.w3.org/1999/xlink" x="0px" y="0px"
	 width="283.46px" height="283.46px" viewBox="0 0 283.46 283.46" enable-background="new 0 0 283.46 283.46" xml:space="preserve">
<g>
	<defs>
		<rect id="SVGID_1_" x="42.52" y="34.342" width="198.424" height="209.111"/>
	</defs>
	<clipPath id="SVGID_2_">
		<use xlink:href="#SVGID_1_"  overflow="visible"/>
	</clipPath>
	<path clip-path="url(#SVGID_2_)" fill="#564F4D" d="M121.384,142.499c-0.937,0-1.696,0.758-1.696,1.695s0.759,1.696,1.696,1.696
		c0.936,0,1.695-0.76,1.695-1.696S122.32,142.499,121.384,142.499"/>
	<path clip-path="url(#SVGID_2_)" fill="#564F4D" d="M121.384,149.281c-0.937,0-1.696,0.759-1.696,1.695s0.759,1.696,1.696,1.696
		c0.936,0,1.695-0.76,1.695-1.696S122.32,149.281,121.384,149.281"/>
	<path clip-path="url(#SVGID_2_)" fill="#564F4D" d="M128.167,128.932c-0.938,0-1.697,0.759-1.697,1.694
		c0,0.938,0.759,1.697,1.697,1.697c0.936,0,1.695-0.76,1.695-1.697C129.862,129.691,129.103,128.932,128.167,128.932"/>
	<path clip-path="url(#SVGID_2_)" fill="#564F4D" d="M128.167,135.715c-0.938,0-1.697,0.759-1.697,1.694
		c0,0.938,0.759,1.696,1.697,1.696c0.936,0,1.695-0.759,1.695-1.696C129.862,136.474,129.103,135.715,128.167,135.715"/>
	<path clip-path="url(#SVGID_2_)" fill="#564F4D" d="M128.167,142.499c-0.938,0-1.697,0.758-1.697,1.695s0.759,1.696,1.697,1.696
		c0.936,0,1.695-0.76,1.695-1.696S129.103,142.499,128.167,142.499"/>
	<path clip-path="url(#SVGID_2_)" fill="#564F4D" d="M128.167,149.281c-0.938,0-1.697,0.759-1.697,1.695s0.759,1.696,1.697,1.696
		c0.936,0,1.695-0.76,1.695-1.696S129.103,149.281,128.167,149.281"/>
	<path clip-path="url(#SVGID_2_)" fill="#564F4D" d="M134.95,128.932c-0.938,0-1.697,0.759-1.697,1.694
		c0,0.938,0.759,1.697,1.697,1.697c0.936,0,1.695-0.76,1.695-1.697C136.646,129.691,135.886,128.932,134.95,128.932"/>
	<path clip-path="url(#SVGID_2_)" fill="#564F4D" d="M134.95,135.715c-0.938,0-1.697,0.759-1.697,1.694
		c0,0.938,0.759,1.696,1.697,1.696c0.936,0,1.695-0.759,1.695-1.696C136.646,136.474,135.886,135.715,134.95,135.715"/>
	<path clip-path="url(#SVGID_2_)" fill="#564F4D" d="M134.95,142.499c-0.938,0-1.697,0.758-1.697,1.695s0.759,1.696,1.697,1.696
		c0.936,0,1.695-0.76,1.695-1.696S135.886,142.499,134.95,142.499"/>
	<path clip-path="url(#SVGID_2_)" fill="#564F4D" d="M134.95,149.281c-0.938,0-1.697,0.759-1.697,1.695s0.759,1.696,1.697,1.696
		c0.936,0,1.695-0.76,1.695-1.696S135.886,149.281,134.95,149.281"/>
	<path clip-path="url(#SVGID_2_)" fill="#564F4D" d="M141.732,132.324c0.937,0,1.696-0.76,1.696-1.696
		c0-0.936-0.759-1.696-1.696-1.696s-1.696,0.761-1.696,1.696C140.037,131.564,140.795,132.324,141.732,132.324"/>
	<path clip-path="url(#SVGID_2_)" fill="#564F4D" d="M141.732,135.715c-0.937,0-1.696,0.759-1.696,1.694
		c0,0.938,0.759,1.696,1.696,1.696s1.696-0.759,1.696-1.696C143.429,136.474,142.669,135.715,141.732,135.715"/>
	<path clip-path="url(#SVGID_2_)" fill="#564F4D" d="M141.732,142.499c-0.937,0-1.696,0.758-1.696,1.695s0.759,1.696,1.696,1.696
		s1.696-0.76,1.696-1.696S142.669,142.499,141.732,142.499"/>
	<path clip-path="url(#SVGID_2_)" fill="#564F4D" d="M141.732,149.281c-0.937,0-1.696,0.759-1.696,1.695s0.759,1.696,1.696,1.696
		s1.696-0.76,1.696-1.696S142.669,149.281,141.732,149.281"/>
	<path clip-path="url(#SVGID_2_)" fill="#564F4D" d="M148.514,132.324c0.938,0,1.697-0.76,1.697-1.696
		c0-0.936-0.759-1.696-1.697-1.696c-0.936,0-1.694,0.761-1.694,1.696C146.819,131.564,147.578,132.324,148.514,132.324"/>
	<path clip-path="url(#SVGID_2_)" fill="#564F4D" d="M148.514,139.106c0.938,0,1.697-0.758,1.697-1.695
		c0-0.936-0.759-1.696-1.697-1.696c-0.936,0-1.694,0.761-1.694,1.696C146.819,138.348,147.578,139.106,148.514,139.106"/>
	<path clip-path="url(#SVGID_2_)" fill="#564F4D" d="M148.514,145.89c0.938,0,1.697-0.759,1.697-1.696
		c0-0.936-0.759-1.695-1.697-1.695c-0.936,0-1.694,0.759-1.694,1.695C146.819,145.131,147.578,145.89,148.514,145.89"/>
	<path clip-path="url(#SVGID_2_)" fill="#564F4D" d="M148.514,152.673c0.938,0,1.697-0.759,1.697-1.696
		c0-0.936-0.759-1.695-1.697-1.695c-0.936,0-1.694,0.76-1.694,1.695C146.819,151.914,147.578,152.673,148.514,152.673"/>
	<path clip-path="url(#SVGID_2_)" fill="#564F4D" d="M155.298,132.324c0.938,0,1.696-0.76,1.696-1.696
		c0-0.936-0.758-1.696-1.696-1.696c-0.937,0-1.694,0.761-1.694,1.696C153.604,131.564,154.361,132.324,155.298,132.324"/>
	<path clip-path="url(#SVGID_2_)" fill="#564F4D" d="M155.298,139.106c0.938,0,1.696-0.758,1.696-1.695
		c0-0.936-0.758-1.696-1.696-1.696c-0.937,0-1.694,0.761-1.694,1.696C153.604,138.348,154.361,139.106,155.298,139.106"/>
	<path clip-path="url(#SVGID_2_)" fill="#564F4D" d="M155.298,145.89c0.938,0,1.696-0.759,1.696-1.696
		c0-0.936-0.758-1.695-1.696-1.695c-0.937,0-1.694,0.759-1.694,1.695C153.604,145.131,154.361,145.89,155.298,145.89"/>
	<path clip-path="url(#SVGID_2_)" fill="#564F4D" d="M155.298,152.673c0.938,0,1.696-0.759,1.696-1.696
		c0-0.936-0.758-1.695-1.696-1.695c-0.937,0-1.694,0.76-1.694,1.695C153.604,151.914,154.361,152.673,155.298,152.673"/>
	<path clip-path="url(#SVGID_2_)" fill="#564F4D" d="M162.081,145.89c0.938,0,1.698-0.759,1.698-1.696
		c0-0.936-0.76-1.695-1.698-1.695c-0.937,0-1.694,0.759-1.694,1.695C160.387,145.131,161.145,145.89,162.081,145.89"/>
	<path clip-path="url(#SVGID_2_)" fill="#564F4D" d="M162.081,152.673c0.938,0,1.698-0.759,1.698-1.696
		c0-0.936-0.76-1.695-1.698-1.695c-0.937,0-1.694,0.76-1.694,1.695C160.387,151.914,161.145,152.673,162.081,152.673"/>
	<path clip-path="url(#SVGID_2_)" fill="#564F4D" d="M92.41,198.233c0.208,0.212,0.532,0.197,0.723,0.01l2.102-2.051
		c0.192-0.188,0.214-0.512,0.008-0.724l-8.352-8.553c-0.206-0.213-0.53-0.197-0.724-0.009l-2.099,2.05
		c-0.191,0.188-0.214,0.511-0.008,0.724l2.69,2.754l-10.287,10.045c-0.192,0.188-0.196,0.531-0.008,0.723l2.256,2.312
		c0.189,0.192,0.531,0.195,0.723,0.008l10.288-10.044L92.41,198.233z"/>
	<path clip-path="url(#SVGID_2_)" fill="#564F4D" d="M191.248,193.102c-0.193-0.187-0.535-0.183-0.724,0.009l-2.257,2.312
		c-0.189,0.193-0.185,0.535,0.009,0.724l12.753,12.45c0.191,0.19,0.534,0.187,0.722-0.008l2.257-2.312
		c0.188-0.191,0.185-0.534-0.008-0.722L191.248,193.102z"/>
	<path clip-path="url(#SVGID_2_)" fill="#564F4D" d="M218.719,186.521l-15.369-9.594c-0.23-0.145-0.564-0.066-0.705,0.162
		l-1.712,2.74c-0.158,0.252-0.065,0.563,0.162,0.705l8.107,5.062l-0.012,0.021l-14.459,3.637l-0.357,0.571
		c-0.143,0.229-0.089,0.548,0.142,0.69l15.384,9.574c0.229,0.142,0.561,0.063,0.704-0.164l1.698-2.718
		c0.154-0.252,0.064-0.562-0.164-0.705l-8.52-5.318l0.016-0.022l14.697-3.36c0.074-0.018,0.258-0.158,0.3-0.227l0.229-0.365
		C219,186.984,218.947,186.664,218.719,186.521"/>
	<path clip-path="url(#SVGID_2_)" fill="#564F4D" d="M186.107,216.206c-0.133-0.236-0.438-0.342-0.695-0.197l-6.51,3.64
		l-1.773-3.173l5.359-2.995c0.233-0.131,0.34-0.439,0.195-0.696l-1.433-2.562c-0.13-0.236-0.46-0.328-0.694-0.197l-5.359,2.995
		l-1.627-2.914l6.508-3.64c0.258-0.144,0.328-0.46,0.197-0.695l-1.433-2.562c-0.131-0.233-0.438-0.34-0.696-0.196l-9.728,5.439
		c-0.259,0.144-0.328,0.461-0.198,0.696l8.697,15.557c0.133,0.235,0.438,0.341,0.697,0.197l9.728-5.438
		c0.258-0.146,0.328-0.463,0.197-0.696L186.107,216.206z"/>
	<path clip-path="url(#SVGID_2_)" fill="#564F4D" d="M166.061,209.072l-3.434,1.021c-0.205,0.061-0.34,0.27-0.354,0.415
		l-1.456,10.685l-0.154,0.046l-7.06-8.152c-0.091-0.113-0.315-0.215-0.524-0.153l-3.43,1.021c-0.388,0.115-0.494,0.513-0.24,0.803
		l13.217,14.971c0.125,0.133,0.318,0.216,0.524,0.155l0.259-0.078c0.207-0.062,0.321-0.236,0.354-0.413l2.936-19.778
		C166.752,209.231,166.447,208.956,166.061,209.072"/>
	<path clip-path="url(#SVGID_2_)" fill="#564F4D" d="M229.576,139.395c-0.004-0.296-0.248-0.509-0.518-0.505l-2.937,0.037
		c-0.27,0.003-0.507,0.222-0.504,0.517l0.094,7.458l-3.634,0.045L222,140.811c-0.002-0.271-0.221-0.511-0.519-0.506l-2.934,0.037
		c-0.269,0.003-0.509,0.249-0.505,0.518l0.078,6.139l-3.34,0.042l-0.094-7.458c-0.004-0.295-0.248-0.509-0.517-0.504l-2.936,0.036
		c-0.27,0.003-0.508,0.223-0.506,0.519l0.142,11.145c0.004,0.296,0.25,0.508,0.519,0.505l17.822-0.225
		c0.269-0.003,0.507-0.223,0.505-0.518L229.576,139.395z"/>
	<path clip-path="url(#SVGID_2_)" fill="#564F4D" d="M223.645,163.187l-0.521,2.395l-3.761-0.82l0.463-2.13
		c0.225-1.026,1.26-1.985,2.311-1.756C223.216,161.109,223.868,162.161,223.645,163.187 M216.388,161.966l-0.445,2.052l-3.684-0.802
		l0.446-2.053c0.219-0.999,1.138-1.681,2.189-1.451C215.946,159.94,216.606,160.966,216.388,161.966 M223.693,156.639
		c-2.422-0.525-4.174,1.324-5.058,2.592c-0.387-1.379-1.466-3.515-3.491-3.956c-2.762-0.601-5.449,1.486-6.125,4.592l-1.334,6.129
		c-0.062,0.289,0.129,0.551,0.393,0.609l17.413,3.79c0.263,0.058,0.547-0.101,0.609-0.391l1.42-6.524
		C228.203,160.349,226.64,157.282,223.693,156.639"/>
	<path clip-path="url(#SVGID_2_)" fill="#564F4D" d="M109.55,205.568l-2.718-1.697c-0.252-0.156-0.563-0.064-0.705,0.164
		l-3.593,5.754l-6.532-4.077l3.593-5.756c0.143-0.228,0.088-0.547-0.163-0.704l-2.717-1.696c-0.229-0.144-0.562-0.065-0.705,0.163
		l-9.439,15.118c-0.141,0.229-0.064,0.562,0.164,0.706l2.717,1.695c0.252,0.158,0.563,0.066,0.705-0.162l3.75-6.007l6.531,4.077
		l-3.749,6.008c-0.142,0.229-0.088,0.548,0.163,0.703l2.718,1.698c0.228,0.142,0.561,0.064,0.705-0.163l9.438-15.119
		C109.855,206.043,109.777,205.71,109.55,205.568"/>
	<path clip-path="url(#SVGID_2_)" fill="#564F4D" d="M127.47,227.062l-6.26-1.363l3.058-14.048c0.056-0.262-0.129-0.551-0.392-0.607
		l-3.13-0.683c-0.29-0.063-0.552,0.129-0.609,0.391l-3.791,17.416c-0.058,0.262,0.101,0.546,0.392,0.607l9.891,2.154
		c0.289,0.062,0.552-0.128,0.609-0.391l0.622-2.868C127.918,227.408,127.759,227.125,127.47,227.062"/>
	<path clip-path="url(#SVGID_2_)" fill="#564F4D" d="M213.655,131.375l-0.943-3.87c-0.261-1.072,0.402-2.205,1.503-2.474
		c1.098-0.268,2.315,0.405,2.577,1.479l0.944,3.87L213.655,131.375z M213.146,120.997c-3.11,0.759-5.022,3.942-4.257,7.08
		l1.907,7.82c0.07,0.288,0.357,0.439,0.619,0.377l17.314-4.227c0.26-0.063,0.446-0.329,0.376-0.616l-0.759-3.114
		c-0.064-0.261-0.358-0.439-0.618-0.375l-6.672,1.627l-0.439-1.804l6.083-5.17c0.093-0.078,0.183-0.268,0.132-0.478l-0.848-3.478
		c-0.108-0.445-0.571-0.526-0.866-0.261l-5.77,5.205C217.877,121.532,215.553,120.409,213.146,120.997"/>
	<path clip-path="url(#SVGID_2_)" fill="#564F4D" d="M80.858,177.884l-1.193-2.916c-0.079-0.2-0.336-0.327-0.532-0.306l-9.323,1.308
		l-0.041-0.1l7.194-7.447c0.129-0.11,0.193-0.311,0.101-0.536l-0.183-0.448c-0.082-0.198-0.268-0.299-0.446-0.312l-10.352-0.277
		l-0.041-0.1l7.572-5.597c0.155-0.12,0.248-0.392,0.166-0.591l-1.19-2.916c-0.143-0.349-0.474-0.445-0.783-0.205l-14.823,11.555
		c-0.179,0.132-0.247,0.392-0.165,0.591l0.163,0.398c0.07,0.175,0.267,0.3,0.447,0.312l12.046,0.37l0.031,0.076l-8.329,8.725
		c-0.12,0.136-0.173,0.362-0.102,0.536l0.163,0.398c0.082,0.199,0.312,0.339,0.532,0.307l18.674-2.133
		C80.833,178.533,81.001,178.232,80.858,177.884"/>
	<path clip-path="url(#SVGID_2_)" fill="#564F4D" d="M84.636,183.096l-1.841-2.653c-0.152-0.223-0.489-0.283-0.71-0.13
		l-14.648,10.153c-0.222,0.154-0.282,0.49-0.13,0.712l1.841,2.655c0.154,0.222,0.491,0.283,0.712,0.129l14.648-10.154
		C84.729,183.655,84.79,183.318,84.636,183.096"/>
	<path clip-path="url(#SVGID_2_)" fill="#564F4D" d="M207.482,85.357l-2.348-2.183c-0.215-0.202-0.538-0.172-0.722,0.026
		l-6.842,7.35l-0.021-0.02l-0.501-15.068c-0.002-0.076-0.104-0.282-0.164-0.337l-0.314-0.293c-0.198-0.185-0.522-0.192-0.705,0.005
		L183.521,88.1c-0.184,0.196-0.174,0.539,0.025,0.723l2.363,2.202c0.217,0.201,0.541,0.171,0.723-0.025l6.514-6.996l0.021,0.018
		l0.816,14.888l0.494,0.459c0.195,0.182,0.521,0.189,0.705-0.008l12.324-13.279C207.69,85.883,207.679,85.541,207.482,85.357"/>
	<path clip-path="url(#SVGID_2_)" fill="#564F4D" d="M71.321,103.137l2.986,3.859l-0.012,0.024l-4.884-0.264L71.321,103.137z
		 M61.061,110.236l19.959,1.002c0.179,0.004,0.387-0.101,0.475-0.266l0.125-0.24c0.089-0.165,0.058-0.394-0.048-0.542L69.479,94.282
		c-0.234-0.306-0.644-0.279-0.832,0.079l-1.383,2.619c-0.25,0.476-0.103,0.888,0.12,1.158L68.836,100l-3.417,6.478l-2.333-0.134
		c-0.565-0.026-0.809,0.09-1.035,0.518l-1.395,2.644C60.468,109.862,60.676,110.216,61.061,110.236"/>
	<path clip-path="url(#SVGID_2_)" fill="#564F4D" d="M57.845,148.937l-0.094-7.457l3.635-0.047l0.078,6.138
		c0.003,0.269,0.222,0.509,0.518,0.506l2.933-0.038c0.27-0.003,0.51-0.249,0.505-0.519l-0.076-6.137l3.338-0.042l0.094,7.457
		c0.003,0.297,0.248,0.509,0.518,0.506l2.934-0.038c0.269-0.003,0.509-0.223,0.505-0.518l-0.141-11.146
		c-0.003-0.296-0.248-0.508-0.518-0.505l-17.822,0.226c-0.269,0.003-0.509,0.222-0.504,0.52l0.141,11.144
		c0.003,0.297,0.248,0.508,0.517,0.505l2.934-0.038C57.609,149.45,57.849,149.232,57.845,148.937"/>
	<path clip-path="url(#SVGID_2_)" fill="#564F4D" d="M60.648,122.121l0.55-2.524l10.655,2.319l-0.55,2.525
		c-0.647,2.972-3.458,4.62-6.431,3.972C61.873,127.761,60,125.093,60.648,122.121 M63.921,132.781
		c5.051,1.1,10.086-2.158,11.191-7.234l1.398-6.421c0.056-0.262-0.134-0.523-0.396-0.58l-17.416-3.792
		c-0.263-0.058-0.545,0.102-0.603,0.364l-1.397,6.418C55.594,126.614,58.817,131.668,63.921,132.781"/>
	<path clip-path="url(#SVGID_2_)" fill="#564F4D" d="M207.123,119.461l15.96-7.932c0.241-0.119,0.361-0.421,0.231-0.686
		l-4.508-9.066c-0.13-0.265-0.444-0.35-0.684-0.229l-2.63,1.306c-0.238,0.12-0.36,0.421-0.23,0.687l2.852,5.738l-12.874,6.397
		c-0.242,0.119-0.35,0.444-0.229,0.687l1.424,2.868C206.567,119.497,206.881,119.582,207.123,119.461"/>
	<path clip-path="url(#SVGID_2_)" fill="#564F4D" d="M214.935,95.43l-1.904-2.61c-0.159-0.218-0.498-0.271-0.715-0.111
		l-14.399,10.503c-0.217,0.158-0.271,0.497-0.111,0.715l1.903,2.61c0.157,0.217,0.496,0.27,0.714,0.11l14.4-10.502
		C215.039,95.986,215.093,95.648,214.935,95.43"/>
	<path clip-path="url(#SVGID_2_)" fill="#564F4D" d="M87.18,101.26c0.197,0.146,0.498,0.099,0.647-0.061l0.292-0.314
		c0.092-0.099,0.179-0.351,0.116-0.52L83.978,87.87l0.035-0.039l12.77,3.354c0.173,0.05,0.416-0.054,0.509-0.153l0.293-0.314
		c0.147-0.157,0.174-0.464,0.015-0.647L86.43,75.515c-0.219-0.279-0.561-0.267-0.781-0.03l-2.166,2.326
		c-0.183,0.195-0.171,0.501-0.032,0.667l5.282,6.536l-0.037,0.039l-9.485-2.613c-0.174-0.05-0.419,0.015-0.53,0.134l-0.328,0.354
		c-0.093,0.1-0.16,0.367-0.097,0.537l3.303,9.254l-0.036,0.039l-6.915-4.781c-0.175-0.127-0.499-0.097-0.663,0.081l-2.165,2.325
		c-0.22,0.236-0.208,0.579,0.084,0.778L87.18,101.26z"/>
	<path clip-path="url(#SVGID_2_)" fill="#564F4D" d="M141.119,228.114c-2.934,0.037-5.387-2.354-5.424-5.29
		c-0.038-2.962,2.353-5.441,5.289-5.479c2.961-0.036,5.415,2.382,5.453,5.343C146.475,225.622,144.08,228.076,141.119,228.114
		 M140.929,213.038c-5.383,0.068-9.609,4.457-9.542,9.843c0.067,5.383,4.402,9.608,9.787,9.541c5.384-0.068,9.637-4.403,9.57-9.787
		C150.675,217.249,146.314,212.971,140.929,213.038"/>
	<path clip-path="url(#SVGID_2_)" fill="#564F4D" d="M141.732,238.068c-51.737,0-93.828-42.091-93.828-93.828
		c0-50.998,40.896-92.62,91.614-93.799v29.472c-34.478,1.173-62.169,29.568-62.169,64.328c0,35.502,28.882,64.385,64.383,64.385
		c35.502,0,64.385-28.883,64.385-64.385c0-34.759-27.693-63.155-62.172-64.328V50.441c50.719,1.18,91.614,42.802,91.614,93.799
		C235.56,195.978,193.47,238.068,141.732,238.068 M144.545,118.102h-5.625v-17.427h5.625V118.102z M125.124,162.092
		c-0.769-0.794-1.474-1.646-2.124-2.544h37.466c-0.649,0.897-1.354,1.75-2.124,2.544H125.124z M146.767,178.57h-10.068l0.299-4.943
		h9.468L146.767,178.57z M141.732,169.146c-4.584,0-8.849-1.356-12.449-3.662h24.897
		C150.582,167.789,146.316,169.146,141.732,169.146 M141.732,124.693c0.937,0,1.696-0.76,1.696-1.697
		c0-0.031-0.008-0.061-0.01-0.091c1.181,0.085,2.336,0.253,3.461,0.511c-0.036,0.139-0.062,0.279-0.062,0.429
		c0,0.937,0.76,1.695,1.696,1.695c0.738,0,1.358-0.473,1.593-1.13c5.412,2.109,9.828,6.188,12.383,11.361
		c-0.131-0.033-0.269-0.057-0.409-0.057c-0.937,0-1.695,0.761-1.695,1.696c0,0.938,0.759,1.695,1.695,1.695
		c0.627,0,1.168-0.343,1.462-0.848c0.859,2.42,1.354,5.013,1.354,7.724c0,3.653-0.875,7.099-2.389,10.175h-41.551
		c-1.513-3.076-2.387-6.521-2.387-10.175c0-2.711,0.493-5.304,1.352-7.724c0.295,0.505,0.835,0.848,1.462,0.848
		c0.936,0,1.696-0.758,1.696-1.695c0-0.936-0.76-1.696-1.696-1.696c-0.143,0-0.277,0.023-0.41,0.057
		c2.556-5.173,6.973-9.252,12.385-11.361c0.233,0.657,0.854,1.13,1.592,1.13c0.936,0,1.695-0.759,1.695-1.695
		c0-0.149-0.025-0.29-0.061-0.429c1.126-0.257,2.28-0.426,3.461-0.511c-0.002,0.03-0.009,0.06-0.009,0.091
		C140.036,123.933,140.795,124.693,141.732,124.693 M129.961,190.452h1.657l-0.711,11.72c-27.348-5.098-48.12-29.127-48.12-57.932
		c0-31.76,25.252-57.719,56.731-58.889v10.975h-2.774c-1.201,0-2.175,0.973-2.175,2.174v20.921
		c-11.708,3.16-20.35,13.867-20.35,26.562c0,12.022,7.751,22.269,18.518,26.004l-0.398,6.584h-2.378
		c-1.202,0-2.176,0.974-2.176,2.175v7.532C127.785,189.479,128.759,190.452,129.961,190.452 M148.236,202.819
		c-2.137,0.236-4.306,0.367-6.504,0.367c-2.199,0-4.367-0.131-6.504-0.367l0.748-12.367h11.51L148.236,202.819z M132.136,182.92
		h19.192v3.183h-19.192V182.92z M143.945,85.351c31.479,1.17,56.732,27.129,56.732,58.889c0,28.805-20.773,52.834-48.121,57.932
		l-0.711-11.72h1.658c1.201,0,2.175-0.974,2.175-2.175v-7.532c0-1.201-0.974-2.175-2.175-2.175h-2.379l-0.4-6.584
		c10.768-3.735,18.52-13.981,18.52-26.004c0-12.695-8.641-23.403-20.35-26.562V98.5c0-1.201-0.974-2.174-2.175-2.174h-2.774V85.351z
		 M143.945,45.055V34.342h-4.427v10.713c-53.686,1.182-96.998,45.219-96.998,99.185c0,54.707,44.507,99.213,99.212,99.213
		s99.213-44.506,99.213-99.213C240.945,90.274,197.632,46.237,143.945,45.055"/>
</g>
</svg>
